<svg width="92" height="65" viewBox="0 0 92 65" fill="none" xmlns="http://www.w3.org/2000/svg">
<path d="M22.75 64.75C34 64.75 42.25 57 42.25 45.5C42.25 34 34 27 24.25 27C20.5 27 16.25 28 13.75 31C14.25 25.75 16.25 21 19.5 17.75C22.75 14.25 27.5 12 33.25 12C38.25 12 38.75 12 42.25 12.5V0.999985C40 0.499991 36.25 0.249994 33.25 0.249994C11 0.249994 5.96046e-07 16 5.96046e-07 36.5C5.96046e-07 57 13 64.75 22.75 64.75ZM72.5 64.75C83.75 64.75 92 57 92 45.5C92 34 83.75 27 74 27C70.25 27 66 28 63.5 31C64 25.75 66 21 69.25 17.75C72.5 14.25 77.25 12 83 12C88 12 88.5 12 92 12.5V0.999985C89.75 0.499991 86 0.249994 83 0.249994C60.75 0.249994 49.75 16 49.75 36.5C49.75 57 62.75 64.75 72.5 64.75Z" fill="#06942A" fill-opacity="0.2"/>
</svg>
